<?xml version="1.0" standalone="no"?>
<!DOCTYPE svg PUBLIC "-//W3C//DTD SVG 20010904//EN"
 "http://www.w3.org/TR/2001/REC-SVG-20010904/DTD/svg10.dtd">
<svg version="1.0" xmlns="http://www.w3.org/2000/svg"
 width="296.000000pt" height="116.000000pt" viewBox="0 0 296.000000 116.000000"
 preserveAspectRatio="xMidYMid meet">

<g transform="translate(0.000000,116.000000) scale(0.100000,-0.100000)"
fill="#000000" stroke="none">
<path d="M2525 1110 c-3 -5 1 -10 10 -10 9 0 13 5 10 10 -3 6 -8 10 -10 10 -2
0 -7 -4 -10 -10z"/>
<path d="M2180 1100 c0 -5 7 -10 15 -10 8 0 15 5 15 10 0 6 -7 10 -15 10 -8 0
-15 -4 -15 -10z"/>
<path d="M2060 820 c0 -5 5 -10 10 -10 6 0 10 5 10 10 0 6 -4 10 -10 10 -5 0
-10 -4 -10 -10z"/>
<path d="M225 769 c-4 -6 -4 -39 0 -74 4 -43 3 -65 -5 -70 -7 -4 -9 -19 -4
-38 4 -18 6 -56 5 -86 -2 -82 3 -91 55 -91 77 0 84 9 84 100 0 43 -5 82 -10
85 -6 4 -8 10 -5 15 12 20 16 142 4 156 -14 17 -114 19 -124 3z m85 -90 c0
-42 -3 -49 -20 -49 -17 0 -20 7 -20 49 0 30 5 51 13 54 21 8 27 -3 27 -54z
m-2 -161 c-2 -48 -7 -63 -18 -63 -11 0 -16 15 -18 63 -3 57 -1 62 18 62 19 0
21 -5 18 -62z"/>
<path d="M403 772 c-9 -5 -13 -57 -13 -181 -1 -95 1 -175 3 -178 3 -3 15 -2
26 2 21 6 21 11 19 182 -3 172 -7 193 -35 175z"/>
<path d="M482 768 c-8 -8 -12 -60 -12 -169 0 -183 3 -189 79 -189 26 0 52 5
59 12 8 8 12 62 12 179 0 164 0 167 -22 173 -38 10 -103 7 -116 -6z m88 -173
l0 -135 -25 0 -25 0 0 128 c0 71 3 132 7 135 3 4 15 7 25 7 17 0 18 -11 18
-135z"/>
<path d="M658 773 c-2 -4 -4 -87 -4 -183 l1 -175 25 0 c24 0 25 2 26 70 l1 70
34 3 c19 2 40 8 46 14 15 12 19 183 5 192 -16 10 -130 18 -134 9z m82 -72 c0
-16 3 -43 6 -60 6 -29 4 -31 -21 -31 -21 0 -26 4 -21 16 3 9 6 36 6 60 0 32 4
44 15 44 10 0 15 -10 15 -29z"/>
<path d="M1017 773 c-4 -3 -7 -34 -7 -67 0 -46 5 -67 21 -86 47 -59 69 -101
69 -136 0 -29 -3 -35 -16 -30 -9 3 -19 6 -24 6 -5 0 -10 10 -12 22 -2 13 -11
24 -20 26 -15 3 -18 -4 -18 -47 l0 -51 59 0 c35 0 63 5 67 12 4 6 7 37 7 70
-1 53 -5 63 -47 120 -54 72 -62 118 -21 118 18 0 25 -5 25 -20 0 -13 7 -20 20
-20 17 0 20 7 20 45 l0 45 -58 0 c-32 0 -62 -3 -65 -7z"/>
<path d="M1187 773 c-4 -3 -7 -33 -7 -65 0 -54 4 -65 45 -122 41 -58 57 -110
39 -128 -12 -12 -43 5 -46 25 -2 12 -11 23 -20 25 -15 3 -18 -4 -18 -47 l0
-51 60 0 c71 0 83 14 76 90 -4 40 -14 63 -50 111 -54 72 -62 119 -21 119 18 0
25 -5 25 -20 0 -13 7 -20 20 -20 17 0 20 7 20 45 l0 45 -58 0 c-32 0 -62 -3
-65 -7z"/>
<path d="M1422 771 c-14 -8 -29 -292 -17 -338 5 -23 9 -24 68 -21 l62 3 0 45
c0 38 -3 45 -20 45 -15 0 -20 -7 -20 -25 0 -18 -6 -25 -20 -25 -19 0 -20 7
-20 137 0 102 3 139 12 142 7 3 18 -5 24 -17 16 -31 16 -31 34 -14 23 24 19
64 -7 71 -32 8 -81 7 -96 -3z"/>
<path d="M851 618 c-13 -84 -25 -165 -28 -180 -5 -25 -2 -28 21 -28 20 0 27 6
32 28 10 46 13 52 28 52 10 0 16 -13 18 -37 2 -24 8 -39 18 -40 37 -7 38 9 14
172 -13 88 -24 166 -24 173 0 6 -12 12 -28 12 l-28 0 -23 -152z m61 -38 c3
-43 1 -50 -16 -50 -12 0 -16 5 -12 16 3 9 6 31 6 50 0 53 18 40 22 -16z"/>
<path d="M2323 614 c-9 -23 13 -40 32 -24 12 10 13 16 4 26 -15 18 -28 18 -36
-2z"/>
<path d="M2672 597 c-15 -17 1 -42 23 -33 18 6 17 37 -1 43 -6 2 -16 -2 -22
-10z"/>
<path d="M2880 575 c0 -8 5 -15 10 -15 6 0 10 7 10 15 0 8 -4 15 -10 15 -5 0
-10 -7 -10 -15z"/>
<path d="M1885 301 c-6 -11 9 -23 19 -14 9 9 7 23 -3 23 -6 0 -12 -4 -16 -9z"/>
<path d="M2425 279 c-10 -15 3 -25 16 -12 7 7 7 13 1 17 -6 3 -14 1 -17 -5z"/>
<path d="M2473 84 c-8 -22 18 -37 36 -20 7 8 10 19 7 25 -10 16 -36 13 -43 -5z"/>
</g>
</svg>
